<?xml version="1.0" standalone="no"?>
<!DOCTYPE svg PUBLIC "-//W3C//DTD SVG 20010904//EN"
 "http://www.w3.org/TR/2001/REC-SVG-20010904/DTD/svg10.dtd">
<svg version="1.0" xmlns="http://www.w3.org/2000/svg"
 width="655.000000pt" height="60pt" viewBox="0 0 655.000000 602.000000"
 preserveAspectRatio="xMidYMid meet" fill="yellow" stroke="red" >
<metadata>
Created by potrace 1.16, written by Peter Selinger 2001-2019
</metadata>
<g transform="translate(0.000000,602.000000) scale(0.100000,-0.100000)"
fill="#000000" stroke="none">
<path d="M2890 5713 c-665 -70 -1255 -349 -1721 -813 -165 -164 -244 -260
-364 -440 -242 -363 -381 -727 -452 -1180 -26 -164 -25 -625 0 -790 130 -833
569 -1523 1257 -1976 596 -393 1321 -544 2033 -423 1151 194 2072 1088 2302
2234 44 218 50 289 50 565 0 289 -12 398 -65 630 -247 1083 -1117 1931 -2205
2149 -191 38 -338 51 -575 49 -124 0 -241 -3 -260 -5z m618 -308 c724 -105
1352 -497 1761 -1100 377 -556 517 -1238 390 -1903 -92 -479 -349 -962 -692
-1301 l-85 -84 -138 73 c-127 66 -299 166 -431 250 -46 29 -61 33 -130 35
-138 3 -198 54 -224 190 -11 61 -54 154 -103 224 -20 30 -36 60 -36 69 0 9 24
52 54 96 86 130 142 254 181 408 21 78 29 88 71 88 61 0 77 27 132 220 28 96
55 199 61 228 18 89 13 194 -15 304 -18 74 -30 167 -44 346 -18 227 -18 246
-3 257 27 20 11 112 -56 317 -34 103 -61 200 -61 216 0 16 -14 56 -31 90 -32
66 -92 125 -187 188 -31 21 -81 58 -110 81 -68 56 -144 93 -262 131 -261 83
-607 94 -820 26 -86 -27 -172 -81 -149 -94 20 -11 115 -19 360 -30 455 -21
602 -75 767 -285 30 -38 76 -92 102 -120 48 -51 78 -114 64 -137 -4 -7 -20
-29 -36 -48 -17 -22 -34 -62 -44 -105 -9 -39 -22 -90 -30 -114 -26 -82 -13
-117 57 -155 71 -39 117 -106 72 -106 -22 0 -126 52 -172 85 -42 31 -92 32
-179 5 -35 -11 -78 -20 -96 -20 -65 0 -107 -48 -136 -152 -29 -109 -35 -195
-20 -295 21 -133 -4 -201 -96 -262 l-47 -30 -27 19 c-41 29 -82 35 -118 16
-80 -42 -54 -86 51 -86 51 0 67 -3 67 -14 0 -29 50 -73 118 -104 88 -41 207
-59 285 -42 78 16 83 25 46 94 -30 55 -98 262 -99 299 0 9 9 26 20 37 18 18
29 20 118 14 78 -5 105 -3 136 10 21 9 53 16 70 16 36 0 76 -24 76 -46 0 -24
-29 -74 -86 -146 -40 -52 -60 -91 -84 -162 -23 -69 -42 -107 -71 -139 -21 -25
-39 -52 -39 -61 0 -8 26 -44 58 -78 75 -81 97 -113 113 -166 14 -50 6 -62 -44
-62 -42 0 -65 15 -137 89 -63 64 -69 68 -205 119 -166 61 -231 76 -299 69 -49
-6 -216 -66 -216 -78 0 -3 17 -11 38 -17 36 -11 77 -18 246 -42 43 -7 94 -17
114 -24 l37 -13 -50 -16 c-28 -9 -90 -24 -140 -32 -99 -17 -159 -42 -195 -80
-22 -23 -22 -25 -5 -51 l17 -26 97 7 98 7 25 -31 c16 -19 32 -58 43 -102 19
-86 36 -120 71 -148 33 -26 98 -28 163 -4 59 20 77 14 99 -34 12 -29 16 -70
17 -178 0 -121 -3 -148 -22 -199 -33 -86 -79 -159 -150 -236 -35 -37 -63 -72
-63 -78 0 -10 60 -42 79 -42 23 0 108 49 153 90 26 23 80 84 119 136 l72 96
28 -109 c15 -60 35 -128 44 -150 l17 -42 -69 -108 c-38 -59 -75 -123 -82 -140
-16 -38 -14 -60 27 -378 17 -126 29 -231 28 -233 -2 -1 -48 -11 -102 -22 -145
-28 -303 -42 -438 -38 l-119 3 -19 95 c-10 52 -22 135 -27 184 -6 61 -15 96
-28 115 -28 37 -80 52 -144 42 -84 -14 -124 4 -253 113 l-29 24 31 16 c55 28
86 20 156 -43 l29 -26 -6 48 c-9 62 -29 92 -78 111 -59 24 -187 42 -200 29 -5
-5 -16 -34 -24 -63 -7 -28 -21 -61 -31 -71 -16 -18 -18 -18 -37 -2 -35 33 -48
72 -46 136 3 59 2 62 -22 65 -140 18 -279 126 -279 219 0 18 2 33 5 33 3 0 37
-16 76 -36 39 -19 74 -33 77 -30 11 11 -22 56 -60 82 -22 15 -44 36 -49 46 -8
15 -6 18 13 18 35 0 123 45 142 71 9 13 16 36 16 50 0 22 -8 31 -43 48 -62 30
-89 26 -170 -23 -40 -24 -114 -69 -166 -101 -96 -58 -336 -171 -539 -253
l-113 -45 -32 38 c-56 67 -107 137 -107 146 0 5 13 9 29 9 20 0 45 -15 89 -54
60 -54 107 -75 124 -58 13 13 -7 49 -32 57 -15 5 -18 12 -13 35 5 25 -1 36
-35 70 -48 48 -72 50 -144 14 l-52 -26 -18 22 c-43 53 -136 215 -199 345 -110
227 -188 491 -226 760 -22 155 -22 483 1 645 104 759 526 1419 1167 1825 334
212 715 342 1124 384 120 13 445 5 573 -14z m-773 -4712 c-10 -40 -34 -63 -66
-63 -17 0 -34 -8 -43 -22 -22 -31 -20 -35 13 -43 48 -10 64 -38 66 -110 0 -39
-3 -65 -10 -65 -40 0 -369 92 -387 109 -9 8 56 97 86 117 14 9 43 18 65 21 34
5 41 2 56 -21 31 -47 82 -29 119 43 19 37 53 61 84 61 21 0 23 -3 17 -27z
m165 -193 c18 0 80 -62 80 -79 0 -10 -11 -28 -25 -41 -22 -21 -30 -22 -92 -16
-82 8 -113 16 -113 26 0 5 15 28 33 52 35 46 73 71 95 63 8 -3 18 -5 22 -5z"/>
<path d="M2687 3752 c-30 -33 -21 -57 25 -75 50 -20 44 -27 -41 -52 -75 -22
-176 -84 -186 -114 -9 -28 11 -61 38 -61 12 0 42 5 66 11 35 8 51 7 78 -6 80
-38 179 -26 328 40 65 28 85 62 85 139 0 69 -8 75 -144 110 -121 32 -225 35
-249 8z"/>
<path d="M2260 2575 c0 -32 49 -189 80 -256 17 -37 247 -252 261 -243 14 8 7
79 -21 213 -22 109 -37 131 -89 129 -51 -2 -130 17 -149 35 -8 9 -19 41 -23
72 -5 36 -14 62 -26 71 -28 21 -33 17 -33 -21z"/>
<path d="M2759 2555 c-58 -30 -129 -94 -129 -117 0 -15 65 -8 105 11 52 24 93
68 101 109 4 18 3 32 -2 32 -5 -1 -39 -16 -75 -35z"/>
<path d="M1809 1711 l-24 -19 29 -31 c34 -35 30 -52 -17 -74 -51 -25 -72 -21
-105 18 l-29 36 -74 -27 c-82 -29 -149 -63 -149 -76 0 -5 24 -33 53 -63 46
-47 58 -55 91 -55 39 0 96 24 96 40 0 12 -77 57 -114 66 -27 7 -28 8 -11 20
28 21 54 17 119 -16 34 -17 75 -30 96 -30 56 0 124 27 172 69 24 20 60 48 81
60 32 20 38 28 35 54 -4 44 -31 57 -61 29 -29 -27 -32 -27 -64 -2 -33 26 -93
26 -124 1z"/>
<path d="M2300 1516 c0 -2 14 -48 31 -102 22 -68 32 -121 33 -167 l1 -69 33 6
c50 8 65 24 59 66 -3 19 -9 44 -13 55 -5 13 2 8 19 -12 15 -17 68 -57 118 -89
86 -54 149 -118 149 -151 0 -24 21 -13 31 17 l11 30 29 -17 c40 -24 54 -48 90
-151 30 -84 77 -152 105 -152 30 0 25 225 -6 303 -8 20 -10 19 -26 -21 l-17
-43 -13 36 c-18 54 -40 73 -139 122 -137 68 -247 146 -355 250 -61 58 -105 93
-119 93 -11 0 -21 -2 -21 -4z"/>
</g>
</svg>
